<?xml version="1.0" standalone="no"?>
<!DOCTYPE svg PUBLIC "-//W3C//DTD SVG 20010904//EN"
 "http://www.w3.org/TR/2001/REC-SVG-20010904/DTD/svg10.dtd">
<svg version="1.0" xmlns="http://www.w3.org/2000/svg"
 width="500.000000pt" height="500.000000pt" viewBox="0 0 500.000000 500.000000"
 preserveAspectRatio="xMidYMid meet">

<g transform="translate(0.000000,500.000000) scale(0.100000,-0.100000)"
fill="#000000" stroke="none">
<path d="M1880 3485 l0 -45 -185 0 -185 0 0 -55 0 -55 -45 0 -45 0 0 -40 0
-39 -72 -3 -73 -3 -5 -45 -5 -45 -67 -3 -68 -3 0 -94 0 -95 -60 0 -60 0 0
-131 c0 -124 1 -131 18 -118 9 8 21 20 25 27 5 7 19 17 32 22 13 5 25 19 27
32 2 14 9 23 20 22 10 -1 16 5 15 17 -1 11 -5 19 -9 19 -15 0 -8 51 7 56 8 4
15 17 15 31 0 22 4 24 37 21 34 -3 37 -6 38 -33 0 -33 18 -41 63 -30 20 5 23
8 11 16 -10 6 -4 9 21 10 19 1 42 2 50 3 11 1 16 16 18 54 l3 52 45 0 c42 0
44 -1 44 -30 0 -28 3 -30 40 -31 62 -3 65 -3 72 -14 5 -6 8 -6 8 2 0 6 10 13
23 15 16 2 23 11 25 31 3 22 8 27 29 27 l26 0 -6 -87 c-4 -67 -9 -90 -23 -100
-10 -7 -16 -14 -13 -16 25 -19 61 -37 72 -37 8 0 19 10 25 23 l11 22 0 -22 c1
-13 6 -23 11 -23 11 0 14 -53 4 -63 -3 -3 -8 -41 -11 -83 -5 -83 0 -94 46 -94
20 0 22 -4 17 -24 -8 -33 2 -56 25 -56 13 0 19 -7 19 -23 0 -33 19 -47 62 -47
40 0 63 -24 38 -40 -9 -5 -11 -21 -7 -49 l5 -41 -45 0 -44 0 3 -37 c3 -36 5
-38 41 -41 l37 -3 0 -93 0 -94 -95 -7 c-92 -7 -95 -8 -95 -31 0 -19 5 -24 25
-24 21 0 25 -5 25 -30 0 -23 4 -30 20 -30 15 0 20 -7 20 -25 0 -20 -5 -25 -25
-25 -21 0 -25 5 -25 30 0 25 -4 30 -25 30 -21 0 -25 5 -25 30 0 25 -4 30 -25
30 -24 0 -25 3 -25 54 l0 55 36 3 c36 3 66 29 51 44 -4 4 -35 11 -68 15 -67 8
-78 14 -61 31 7 7 12 33 12 58 0 41 -2 46 -25 48 -21 1 -25 -3 -25 -23 0 -18
5 -25 20 -25 11 0 20 -5 20 -11 0 -6 -9 -9 -20 -6 -16 4 -20 0 -20 -19 0 -13
4 -24 8 -24 14 0 10 -29 -5 -34 -7 -3 -13 -12 -13 -21 0 -8 -9 -15 -20 -15
-14 0 -22 11 -29 38 -6 20 -11 43 -11 50 0 7 -13 12 -32 12 -65 0 -78 9 -78
50 0 34 3 38 30 44 31 6 38 24 18 44 -22 22 -45 14 -52 -18 l-6 -31 -82 3 -83
3 -3 33 c-3 28 -7 32 -33 32 -25 0 -29 4 -29 26 0 23 -3 26 -30 22 -26 -4 -30
-1 -30 19 0 18 -5 23 -25 23 -21 0 -25 -5 -25 -27 0 -22 2 -25 10 -13 7 11 10
5 10 -22 0 -37 1 -38 39 -38 l38 0 5 -51 c8 -76 2 -89 -38 -89 -32 0 -33 2
-36 43 l-3 42 -102 3 -103 3 0 32 c0 27 5 35 28 44 l27 11 -37 2 c-21 1 -42 4
-48 5 -5 1 -18 3 -28 4 -15 1 -21 15 -30 65 -7 35 -12 75 -12 90 0 21 -5 26
-25 26 -23 0 -24 -4 -27 -62 -3 -63 -3 -63 -35 -66 -29 -3 -33 -7 -33 -33 0
-27 -3 -29 -35 -29 l-35 0 0 -95 0 -95 -30 0 -30 0 0 -270 0 -270 30 0 30 0 0
-205 0 -205 30 0 c30 0 30 0 30 -60 l0 -59 108 -3 107 -3 3 -57 3 -58 169 0
170 0 0 55 c0 52 1 55 25 55 14 0 25 3 25 8 0 4 20 6 44 4 42 -4 43 -3 50 28
11 57 -4 165 -25 178 -12 8 -19 8 -19 2 0 -5 -9 -10 -20 -10 -15 0 -20 7 -20
25 0 22 3 24 19 15 11 -5 21 -6 23 -1 2 5 20 12 41 16 l37 7 0 -71 0 -71 30 0
29 0 3 133 3 132 283 3 282 2 0 75 0 75 455 0 455 0 0 55 0 55 225 0 225 0 0
45 0 45 265 0 265 0 0 -45 0 -45 269 0 268 0 7 46 c3 26 6 73 6 105 l0 59 45
0 45 0 0 60 0 60 -45 0 c-28 0 -46 5 -47 13 -1 6 -2 71 -2 142 l-1 130 -37 -1
-37 -1 -7 88 -7 89 -44 0 -45 0 7 -86 7 -87 -88 7 c-49 4 -93 11 -97 15 -10
10 -15 35 -16 79 l-1 32 -90 0 c-89 0 -90 0 -90 25 0 23 3 25 50 25 49 0 50 1
50 30 0 28 3 30 34 30 30 0 35 -3 38 -27 l3 -28 93 -3 92 -2 0 45 0 45 -55 0
-55 0 0 65 0 65 -80 0 -80 0 0 51 0 51 -47 -4 -48 -3 -3 55 c-5 105 1 100
-107 100 l-95 0 0 -40 c0 -38 2 -40 31 -40 23 0 30 -4 28 -17 -4 -45 1 -52 39
-55 34 -3 37 -6 40 -35 3 -30 6 -33 38 -33 l34 0 0 -70 0 -70 -35 0 c-28 0
-35 -4 -35 -20 0 -11 -5 -20 -11 -20 -5 0 -7 -4 -4 -10 3 -5 0 -7 -8 -4 -8 3
-20 -2 -27 -11 -7 -8 -19 -15 -26 -15 -15 0 -14 -46 1 -70 5 -9 4 -11 -3 -6
-8 5 -12 -4 -12 -29 l0 -36 -67 3 -68 3 0 -30 c0 -27 4 -30 33 -33 29 -3 32
-6 32 -38 0 -32 -2 -34 -35 -34 -33 0 -35 2 -35 34 0 34 -1 35 -47 38 -44 3
-50 6 -68 40 -13 25 -27 38 -41 38 -20 0 -21 4 -16 99 l5 100 -34 3 c-31 3
-34 6 -37 41 -3 35 -5 37 -38 37 -29 0 -34 3 -34 24 0 21 -5 24 -61 30 -34 3
-79 6 -100 6 -37 0 -39 -2 -39 -30 0 -23 -5 -30 -19 -30 -17 0 -18 -9 -18 -96
0 -67 4 -99 13 -109 9 -9 14 -38 14 -84 0 -66 -2 -71 -21 -71 -12 0 -28 -8
-35 -17 -8 -11 -13 -13 -14 -5 0 14 -40 17 -40 2 0 -5 -11 -10 -25 -10 -24 0
-25 -3 -25 -55 0 -48 3 -55 19 -55 14 0 21 -8 23 -27 2 -20 9 -29 26 -31 20
-3 22 -9 22 -62 0 -63 -6 -70 -61 -70 -16 0 -30 -6 -30 -12 -3 -29 -4 -33 -14
-36 -5 -1 -12 12 -15 30 -4 27 -11 33 -40 40 -64 16 -65 17 -42 38 12 11 30
20 42 20 16 0 20 6 20 30 0 22 4 28 15 24 10 -4 15 0 15 15 0 22 -14 28 -25
11 -3 -6 -11 -10 -18 -10 -8 0 -8 3 0 11 19 19 -14 46 -38 31 -16 -10 -19 -9
-19 3 0 8 -7 15 -15 15 -19 0 -19 19 0 44 11 15 15 16 16 5 1 -8 4 0 8 16 5
27 10 30 49 33 28 2 42 8 42 18 0 10 -12 14 -45 14 -45 0 -45 0 -45 35 0 25 4
35 16 35 13 0 15 17 13 115 -2 85 -5 115 -15 115 -7 0 -15 6 -17 13 -3 7 -6 5
-6 -5 -1 -13 -9 -18 -31 -18 -27 0 -30 3 -30 30 0 24 -4 30 -21 30 -11 0 -27
7 -36 16 -23 22 -67 14 -71 -13 -3 -24 -16 -30 -26 -14 -4 5 -1 11 6 13 7 3 9
12 4 23 -5 13 -9 16 -14 8 -4 -7 -21 -11 -37 -11 -17 0 -49 -2 -71 -6 -40 -7
-42 -9 -48 -51 -6 -46 -1 -70 19 -95 7 -8 15 -23 18 -32 11 -30 -47 -24 -63 7
-7 13 -21 27 -32 31 -28 8 -25 62 5 73 12 5 25 7 29 5 3 -2 3 8 -1 23 -9 35
-46 44 -54 14 -7 -26 -27 -27 -55 -1 -12 11 -28 20 -37 20 -10 0 -15 10 -15
30 0 18 -5 29 -12 28 -6 -2 -15 12 -19 31 -7 33 -6 33 23 27 17 -3 37 -6 44
-6 8 0 14 -10 14 -25 0 -14 5 -25 11 -25 5 0 8 4 5 8 -9 15 34 52 59 52 35 0
31 16 -5 24 -16 3 -30 12 -30 19 0 26 -36 47 -78 47 -22 0 -44 5 -47 10 -4 6
-14 10 -23 9 -40 -4 -72 2 -85 15 -8 8 -27 16 -43 18 -25 3 -29 8 -32 36 -3
27 1 35 17 39 27 7 27 20 1 28 -12 4 -20 15 -20 30 0 19 -35 55 -55 55 -15 0
-2 -40 17 -52 l22 -15 -27 -5 c-20 -4 -30 0 -38 13 -5 11 -16 19 -24 19 -9 0
-12 6 -8 17 4 11 3 14 -5 9 -7 -4 -12 -18 -12 -32 0 -19 -5 -24 -23 -24 -27 0
-57 28 -57 53 0 13 -9 15 -55 11 -54 -5 -55 -5 -55 20 0 28 -5 29 -195 31 -57
1 -60 2 -57 25 1 13 9 35 17 47 15 23 18 23 215 23 171 0 200 2 200 15 0 11
-11 15 -41 15 -38 0 -40 1 -37 28 l3 27 160 3 c88 2 251 0 363 -3 l202 -7 0
-30 c0 -17 -4 -27 -10 -23 -5 3 -10 1 -10 -6 0 -7 -10 -9 -26 -6 -15 3 -22 1
-16 -5 5 -5 27 -6 50 -2 40 6 42 8 42 40 0 19 5 34 10 34 6 0 10 -15 10 -34 0
-39 11 -46 73 -46 31 0 38 -3 27 -10 -8 -5 -27 -10 -42 -10 -23 0 -27 -5 -30
-32 -3 -32 -5 -33 -41 -30 -37 4 -38 3 -35 -25 3 -25 7 -28 37 -26 28 1 35 -3
44 -28 10 -26 31 -43 24 -20 -1 5 6 16 16 23 9 7 18 28 20 45 2 31 4 33 40 33
20 0 37 -4 37 -10 0 -5 9 -10 19 -10 11 0 22 -6 24 -12 4 -10 6 -10 6 0 1 17
31 15 31 -2 0 -11 19 -15 83 -18 91 -4 117 0 96 13 -25 15 -3 19 107 19 60 1
142 4 182 7 l72 5 0 39 0 39 -315 0 -315 0 0 50 0 50 -145 0 -145 0 0 45 0 45
-320 0 -320 0 0 -45z m-87 -577 c7 -4 27 -8 45 -8 29 0 32 -3 32 -30 0 -29 -1
-30 -50 -30 -39 0 -52 4 -57 18 -4 9 -11 20 -17 25 -7 5 -5 11 7 18 13 8 16
18 11 49 -4 22 -3 47 2 57 6 13 10 2 12 -37 2 -30 9 -58 15 -62z m-426 40 c-3
-8 -6 -5 -6 6 -1 11 2 17 5 13 3 -3 4 -12 1 -19z m912 3 c19 -15 22 -21 13
-37 -6 -10 -12 -14 -12 -7 0 7 -11 24 -25 38 -30 29 -12 34 24 6z m-321 -267
c-2 -30 -5 -34 -30 -34 -37 0 -39 -36 -3 -50 18 -7 25 -17 25 -35 0 -21 -5
-25 -27 -24 -16 0 -37 4 -48 9 -19 8 -19 9 -1 9 15 1 17 6 12 32 -3 17 -6 38
-6 45 0 9 -12 14 -35 14 -32 0 -35 3 -35 28 0 26 4 29 53 38 81 14 98 8 95
-32z m692 6 c0 -15 7 -20 25 -20 24 0 25 -3 25 -60 l0 -60 40 0 c29 0 40 -4
40 -15 0 -9 -7 -18 -16 -22 -22 -8 -69 9 -69 26 0 7 -8 19 -19 26 -10 8 -20
28 -22 46 -5 40 -22 62 -46 56 -14 -4 -18 1 -18 19 0 20 5 24 30 24 23 0 30
-4 30 -20z m708 -47 l3 -33 -71 0 c-65 0 -71 2 -82 25 -6 14 -16 26 -22 27
-22 3 90 15 129 14 38 -1 40 -3 43 -33z m-498 -412 c0 -6 -4 -12 -8 -15 -5 -3
-9 1 -9 9 0 8 4 15 9 15 4 0 8 -4 8 -9z m-1594 -340 c-13 -20 -26 -11 -26 16
0 25 1 26 16 11 9 -9 13 -21 10 -27z m-302 -37 c44 -6 46 -8 46 -40 0 -19 5
-34 10 -34 6 0 10 6 10 14 0 14 21 26 46 26 8 0 14 -9 14 -20 0 -17 7 -20 40
-20 22 0 40 5 40 10 0 6 7 10 15 10 8 0 15 -4 15 -10 0 -5 5 -10 10 -10 6 0
10 9 10 19 0 16 9 21 44 26 55 9 81 4 81 -15 0 -9 -13 -17 -35 -21 -33 -6 -32
-6 12 -8 88 -2 189 -24 183 -39 -3 -7 -5 -17 -5 -22 0 -5 -9 -12 -20 -15 -15
-5 -20 -15 -20 -41 0 -30 3 -34 25 -34 21 0 25 -5 25 -30 l0 -30 -60 0 -60 0
0 -50 c0 -49 1 -50 30 -50 36 0 40 -15 5 -24 -14 -4 -25 -11 -25 -17 0 -7 10
-9 25 -5 22 6 25 3 25 -19 0 -25 0 -25 -90 -25 -90 0 -101 4 -77 29 10 11 10
13 0 7 -7 -4 -13 -3 -13 2 0 6 7 13 16 16 8 3 12 2 9 -4 -3 -6 -1 -10 5 -10 6
0 8 -4 5 -10 -3 -5 -1 -10 5 -10 6 0 10 10 8 22 -4 30 -31 36 -159 37 l-107 1
-6 35 c-8 43 -33 38 -39 -8 -4 -30 -4 -30 -5 6 -2 28 -6 37 -20 37 -11 0 -18
7 -18 20 0 11 4 20 9 20 5 0 4 6 -2 14 -9 10 -8 15 4 20 15 5 22 27 8 25 -5
-1 -34 -1 -65 0 l-58 1 0 35 c0 34 -1 35 -40 35 -39 0 -40 -1 -40 -35 0 -30
-3 -35 -25 -35 -63 0 -85 30 -77 107 4 30 6 31 63 38 59 7 59 7 59 40 0 18 6
36 13 38 18 8 97 8 151 1z m-54 -334 c0 -5 -4 -10 -10 -10 -5 0 -10 5 -10 10
0 6 5 10 10 10 6 0 10 -4 10 -10z"/>
<path d="M916 1724 c-9 -22 -8 -24 9 -24 8 0 15 9 15 20 0 24 -15 27 -24 4z"/>
<path d="M2413 3366 c-43 -10 -43 -10 -43 -54 l0 -43 38 3 c36 3 37 4 40 45 3
39 5 42 35 45 l32 3 -30 5 c-16 3 -49 1 -72 -4z"/>
<path d="M1918 3298 c9 -9 15 -9 24 0 9 9 7 12 -12 12 -19 0 -21 -3 -12 -12z"/>
<path d="M3440 3210 l0 -40 90 0 90 0 0 40 0 40 -90 0 -90 0 0 -40z"/>
<path d="M2180 3220 c0 -6 7 -13 16 -17 9 -3 13 -12 9 -22 -5 -14 -4 -14 11 1
15 15 15 18 1 32 -18 18 -37 21 -37 6z"/>
<path d="M2508 3217 c-7 -8 -19 -12 -26 -9 -7 2 -19 -4 -26 -13 -11 -15 -16
-15 -33 -5 -33 21 -52 7 -46 -34 5 -38 -9 -49 -25 -20 -5 9 -15 14 -21 10 -6
-4 -9 -11 -6 -16 3 -4 -7 -13 -22 -18 l-28 -10 33 -1 c30 -1 32 -3 22 -21 -9
-17 -8 -20 12 -21 13 -1 29 -1 36 0 6 1 12 -3 12 -9 0 -5 7 -10 15 -10 8 0 15
-4 15 -10 0 -5 -6 -9 -12 -7 -7 1 -14 -8 -16 -20 -3 -20 1 -23 32 -23 35 0 36
1 36 40 0 30 4 40 16 40 9 0 18 -9 21 -20 3 -13 14 -20 28 -20 17 0 25 -7 28
-22 2 -13 5 5 6 40 1 59 2 62 26 62 23 0 25 3 25 50 0 48 -1 50 -29 50 -16 0
-31 6 -35 15 -7 19 -20 19 -38 2z m-18 -137 c0 -5 -7 -10 -15 -10 -8 0 -15 5
-15 10 0 6 7 10 15 10 8 0 15 -4 15 -10z"/>
<path d="M2260 3200 c0 -5 7 -10 16 -10 8 0 12 5 9 10 -3 6 -10 10 -16 10 -5
0 -9 -4 -9 -10z"/>
<path d="M2917 3202 c-15 -3 -18 -13 -16 -53 3 -50 18 -74 48 -74 9 0 21 9 28
20 12 20 12 19 13 -2 0 -19 5 -23 28 -22 24 2 24 2 4 6 -27 5 -24 27 4 31 83
13 83 62 1 62 -18 0 -45 8 -62 18 -16 10 -38 16 -48 14z"/>
<path d="M3664 3095 c10 -54 11 -55 44 -55 l33 0 -3 53 -3 52 -41 3 -40 3 10
-56z"/>
<path d="M3200 3111 c0 -29 -18 -35 -23 -9 l-4 23 -2 -22 c0 -13 -8 -23 -16
-23 -12 0 -35 -28 -35 -44 0 -3 11 -6 25 -6 14 0 25 5 25 10 0 6 11 10 24 10
27 0 53 24 36 35 -5 3 -10 15 -10 26 0 10 -4 19 -10 19 -5 0 -10 -9 -10 -19z"/>
<path d="M2635 3101 c-3 -5 -1 -12 5 -16 5 -3 10 1 10 9 0 18 -6 21 -15 7z"/>
<path d="M3015 3052 c-30 -3 -30 -3 -32 -72 l-2 -70 42 0 43 0 -1 65 c-1 36
-6 69 -11 73 -5 4 -23 6 -39 4z"/>
<path d="M2610 3003 c0 -41 -15 -60 -37 -47 -10 5 -26 8 -35 6 -22 -4 -24 -42
-3 -42 8 0 15 -8 15 -17 0 -13 3 -14 12 -5 7 7 36 12 65 12 49 0 53 2 53 24 0
13 -6 26 -14 29 -7 3 -16 19 -19 36 -8 40 -37 42 -37 4z"/>
<path d="M1660 2930 c0 -19 5 -30 14 -30 30 0 30 42 0 54 -10 4 -14 -3 -14
-24z"/>
<path d="M2700 2904 c-14 -8 -19 -14 -12 -14 6 0 12 -7 12 -15 0 -16 12 -18
48 -9 14 4 22 13 21 28 -1 17 -2 17 -6 4 -5 -22 -23 -24 -23 -4 0 22 -12 24
-40 10z"/>
<path d="M3148 2885 c-3 -14 -1 -25 3 -25 5 0 9 11 9 25 0 14 -2 25 -4 25 -2
0 -6 -11 -8 -25z"/>
<path d="M2860 2830 c0 -5 5 -10 10 -10 6 0 10 5 10 10 0 6 -4 10 -10 10 -5 0
-10 -4 -10 -10z"/>
<path d="M1615 2810 c-19 -8 -19 -9 3 -9 12 -1 22 4 22 9 0 6 -1 10 -2 9 -2 0
-12 -4 -23 -9z"/>
<path d="M2520 2795 c0 -10 11 -15 35 -15 24 0 35 5 35 15 0 10 -11 15 -35 15
-24 0 -35 -5 -35 -15z"/>
<path d="M3030 2745 c0 -58 2 -65 20 -65 16 0 20 7 20 34 0 19 4 36 8 38 5 2
12 15 16 31 6 26 5 27 -29 27 l-35 0 0 -65z"/>
<path d="M1660 2709 c0 -18 2 -19 15 -5 8 8 15 17 15 20 0 3 -7 6 -15 6 -9 0
-15 -9 -15 -21z"/>
<path d="M860 2610 l0 -40 40 0 40 0 0 40 0 40 -40 0 -40 0 0 -40z"/>
</g>
</svg>
